<?xml version="1.0" encoding="UTF-8"?>
<svg xmlns="http://www.w3.org/2000/svg" viewBox="0 0 300 300" width="300" height="300">
  <!-- Cake stand -->
  <ellipse cx="150" cy="240" rx="100" ry="20" fill="#e8d7d2" />
  <rect x="135" y="240" width="30" height="20" fill="#e8d7d2" />
  <ellipse cx="150" cy="260" rx="40" ry="10" fill="#e8d7d2" />
  
  <!-- Cake base - bottom layer -->
  <ellipse cx="150" cy="200" rx="80" ry="25" fill="#614c3e" />
  <rect x="70" y="170" width="160" height="30" fill="#614c3e" />
  <ellipse cx="150" cy="170" rx="80" ry="25" fill="#614c3e" />
  
  <!-- Cake filling -->
  <rect x="75" y="170" width="150" height="3" fill="#a67c52" />
  
  <!-- Middle layer -->
  <ellipse cx="150" cy="140" rx="70" ry="20" fill="#614c3e" />
  <rect x="80" y="120" width="140" height="20" fill="#614c3e" />
  <ellipse cx="150" cy="120" rx="70" ry="20" fill="#614c3e" />
  
  <!-- Middle filling -->
  <rect x="85" y="120" width="130" height="3" fill="#a67c52" />
  
  <!-- Top layer -->
  <ellipse cx="150" cy="90" rx="60" ry="15" fill="#614c3e" />
  <rect x="90" y="75" width="120" height="15" fill="#614c3e" />
  <ellipse cx="150" cy="75" rx="60" ry="15" fill="#614c3e" />
  
  <!-- Chocolate ganache dripping -->
  <path d="M90,75 C85,85 83,95 80,105 M105,75 C103,85 100,95 98,105 M120,75 C118,85 115,95 113,105 M135,75 C133,85 130,95 128,105 M150,75 C148,85 145,95 143,105 M165,75 C163,85 160,95 158,105 M180,75 C178,85 175,95 173,105 M195,75 C193,85 190,95 188,105 M210,75 C208,85 205,95 203,105" stroke="#4c3628" stroke-width="3" stroke-linecap="round" />
  
  <!-- Cake top and decorations -->
  <ellipse cx="150" cy="75" rx="60" ry="15" fill="#4c3628" />
  
  <!-- Chocolate shavings -->
  <path d="M130,70 L125,60 M140,65 L135,55 M150,70 L145,60 M160,65 L155,55 M170,70 L165,60" stroke="#614c3e" stroke-width="2" />
  
  <!-- Chocolate truffles on top -->
  <circle cx="130" cy="70" r="5" fill="#4c3628" />
  <circle cx="130" cy="68" r="2" fill="#614c3e" opacity="0.8" />
  
  <circle cx="150" cy="65" r="6" fill="#4c3628" />
  <circle cx="150" cy="63" r="2" fill="#614c3e" opacity="0.8" />
  
  <circle cx="170" cy="70" r="5" fill="#4c3628" />
  <circle cx="170" cy="68" r="2" fill="#614c3e" opacity="0.8" />
  
  <!-- Side decorations - piped cream -->
  <path d="M80,120 C75,125 75,135 80,140 C85,145 85,155 80,160 C75,165 75,175 80,180" stroke="#a67c52" stroke-width="3" fill="none" />
  <path d="M220,120 C225,125 225,135 220,140 C215,145 215,155 220,160 C225,165 225,175 220,180" stroke="#a67c52" stroke-width="3" fill="none" />
  
  <!-- Chocolate covered strawberries -->
  <path d="M120,60 C115,55 115,45 120,40" stroke="#7d5d3b" stroke-width="2" fill="none" />
  <path d="M120,60 L120,55" stroke="#4c3628" stroke-width="4" stroke-linecap="round" />
  <path d="M120,55 C123,48 117,43 120,40 C123,43 125,48 120,55" fill="#d16464" stroke="#4c3628" stroke-width="1" />
  
  <path d="M180,60 C185,55 185,45 180,40" stroke="#7d5d3b" stroke-width="2" fill="none" />
  <path d="M180,60 L180,55" stroke="#4c3628" stroke-width="4" stroke-linecap="round" />
  <path d="M180,55 C177,48 183,43 180,40 C177,43 175,48 180,55" fill="#d16464" stroke="#4c3628" stroke-width="1" />
</svg>